<?xml version="1.0" encoding="UTF-8" standalone="no"?>
<!-- Created with Inkscape (http://www.inkscape.org/) -->

<svg
   xmlns:dc="http://purl.org/dc/elements/1.1/"
   xmlns:cc="http://creativecommons.org/ns#"
   xmlns:rdf="http://www.w3.org/1999/02/22-rdf-syntax-ns#"
   xmlns:svg="http://www.w3.org/2000/svg"
   xmlns="http://www.w3.org/2000/svg"
   xmlns:sodipodi="http://sodipodi.sourceforge.net/DTD/sodipodi-0.dtd"
   xmlns:inkscape="http://www.inkscape.org/namespaces/inkscape"
   width="48"
   height="48"
   viewBox="0 0 12.7 12.7"
   version="1.1"
   id="svg8"
   sodipodi:docname="log.svg"
   inkscape:version="0.92.2 5c3e80d, 2017-08-06">
  <defs
     id="defs2" />
  <sodipodi:namedview
     id="base"
     pagecolor="#ffffff"
     bordercolor="#666666"
     borderopacity="1.0"
     inkscape:pageopacity="0.0"
     inkscape:pageshadow="2"
     inkscape:zoom="5.6"
     inkscape:cx="25.424728"
     inkscape:cy="26.747374"
     inkscape:document-units="mm"
     inkscape:current-layer="layer1"
     showgrid="false"
     units="px"
     inkscape:window-width="1366"
     inkscape:window-height="705"
     inkscape:window-x="0"
     inkscape:window-y="0"
     inkscape:window-maximized="1" />
  <metadata
     id="metadata5">
    <rdf:RDF>
      <cc:Work
         rdf:about="">
        <dc:format>image/svg+xml</dc:format>
        <dc:type
           rdf:resource="http://purl.org/dc/dcmitype/StillImage" />
        <dc:title />
      </cc:Work>
    </rdf:RDF>
  </metadata>
  <g
     inkscape:label="Capa 1"
     inkscape:groupmode="layer"
     id="layer1"
     transform="translate(0,-284.29998)">
    <g
       aria-label="log"
       transform="matrix(0.56146643,0,0,0.54631883,-7.5617808,285.20339)"
       style="font-style:normal;font-weight:normal;font-size:14.66666698px;line-height:1.25;font-family:sans-serif;text-align:center;letter-spacing:0px;word-spacing:0px;text-anchor:middle;fill:#000000;fill-opacity:1;stroke:none"
       id="flowRoot837">
      <path
         d="m 17.900716,3.4834192 v 8.7011718 q 0,0.615886 0.08594,0.816406 0.0931,0.200521 0.279296,0.307943 0.186198,0.100261 0.694662,0.100261 v 0.257812 h -3.215495 v -0.257812 q 0.451172,0 0.615885,-0.0931 0.164714,-0.0931 0.257813,-0.307943 0.0931,-0.214844 0.0931,-0.823568 V 6.2262578 q 0,-1.1100261 -0.05013,-1.3606771 -0.05013,-0.2578126 -0.164714,-0.3509115 -0.107422,-0.093099 -0.279297,-0.093099 -0.186198,0 -0.472656,0.1145834 L 15.623372,4.2855025 17.57845,3.4834192 Z"
         style="font-style:normal;font-variant:normal;font-weight:normal;font-stretch:normal;font-family:'Times New Roman';-inkscape-font-specification:'Times New Roman, '"
         id="path960" />
      <path
         d="m 22.920898,6.9137578 q 1.489584,0 2.391928,1.1315104 0.766276,0.9667969 0.766276,2.2200518 0,0.88086 -0.422526,1.783204 -0.422526,0.902343 -1.167318,1.360677 -0.73763,0.458333 -1.647136,0.458333 -1.482421,0 -2.356119,-1.181641 -0.737631,-0.995442 -0.737631,-2.234375 0,-0.9023435 0.444011,-1.7903643 0.451172,-0.8951824 1.18164,-1.3177084 0.730469,-0.4296875 1.546875,-0.4296875 z m -0.222005,0.4654948 q -0.379557,0 -0.766276,0.2291667 -0.379557,0.2220052 -0.615885,0.7877604 -0.236328,0.5657552 -0.236328,1.4537761 0,1.4322912 0.565755,2.4707032 0.572917,1.038411 1.503906,1.038411 0.694662,0 1.145834,-0.572916 0.451171,-0.572917 0.451171,-1.969401 0,-1.7473962 -0.751953,-2.7500004 -0.508463,-0.6875 -1.296224,-0.6875 z"
         style="font-style:normal;font-variant:normal;font-weight:normal;font-stretch:normal;font-family:'Times New Roman';-inkscape-font-specification:'Times New Roman, '"
         id="path962" />
      <path
         d="m 28.800456,11.275086 q -0.601563,-0.29362 -0.923828,-0.816406 -0.322266,-0.5299482 -0.322266,-1.167318 0,-0.9739584 0.730469,-1.6757813 0.73763,-0.7018229 1.883463,-0.7018229 0.938152,0 1.625652,0.4583333 h 1.389322 q 0.307943,0 0.358073,0.021484 0.05013,0.014323 0.07161,0.057292 0.04297,0.064453 0.04297,0.2291666 0,0.186198 -0.03581,0.2578125 -0.02148,0.035807 -0.07878,0.057292 -0.05013,0.021484 -0.358073,0.021484 h -0.852213 q 0.401042,0.515625 0.401042,1.3177083 0,0.9166663 -0.701823,1.5683593 -0.701823,0.651693 -1.883464,0.651693 -0.486979,0 -0.995443,-0.143229 -0.315104,0.272135 -0.429687,0.479817 -0.107422,0.200521 -0.107422,0.34375 0,0.121745 0.114583,0.236329 0.121745,0.114583 0.465495,0.164713 0.200521,0.02865 1.002604,0.05013 1.475261,0.03581 1.91211,0.100261 0.666015,0.0931 1.059896,0.49414 0.401041,0.401042 0.401041,0.988282 0,0.809244 -0.759114,1.518229 -1.117188,1.045573 -2.914714,1.045573 -1.382161,0 -2.334635,-0.623047 -0.53711,-0.358073 -0.53711,-0.744792 0,-0.171875 0.07878,-0.34375 0.121745,-0.264974 0.501302,-0.73763 0.05013,-0.06445 0.730469,-0.773438 -0.372396,-0.222005 -0.529948,-0.39388 -0.15039,-0.179036 -0.15039,-0.401041 0,-0.250651 0.20052,-0.58724 0.207683,-0.336589 0.945313,-0.952474 z M 30.04655,7.2575078 q -0.529948,0 -0.888021,0.422526 -0.358073,0.4225261 -0.358073,1.296224 0,1.1315102 0.486979,1.7545572 0.372396,0.472656 0.945313,0.472656 0.54427,0 0.895182,-0.408203 0.350911,-0.408203 0.350911,-1.2819008 0,-1.1386719 -0.49414,-1.7832032 Q 30.619466,7.2575078 30.04655,7.2575078 Z m -1.317709,6.4095052 q -0.336588,0.365235 -0.508463,0.680339 -0.171875,0.315104 -0.171875,0.580078 0,0.34375 0.415364,0.601562 0.716146,0.444011 2.069662,0.444011 1.289062,0 1.897786,-0.458334 0.615886,-0.451171 0.615886,-0.966796 0,-0.372396 -0.365235,-0.529948 -0.372395,-0.157552 -1.47526,-0.186198 -1.611328,-0.04297 -2.477865,-0.164714 z"
         style="font-style:normal;font-variant:normal;font-weight:normal;font-stretch:normal;font-family:'Times New Roman';-inkscape-font-specification:'Times New Roman, '"
         id="path964" />
    </g>
  </g>
</svg>
