<?xml version="1.0" encoding="UTF-8" standalone="no"?>
<!-- Created with Inkscape (http://www.inkscape.org/) -->

<svg
   xmlns:dc="http://purl.org/dc/elements/1.1/"
   xmlns:cc="http://creativecommons.org/ns#"
   xmlns:rdf="http://www.w3.org/1999/02/22-rdf-syntax-ns#"
   xmlns:svg="http://www.w3.org/2000/svg"
   xmlns="http://www.w3.org/2000/svg"
   xmlns:sodipodi="http://sodipodi.sourceforge.net/DTD/sodipodi-0.dtd"
   xmlns:inkscape="http://www.inkscape.org/namespaces/inkscape"
   width="48"
   height="48"
   viewBox="0 0 12.7 12.7"
   version="1.1"
   id="svg8"
   sodipodi:docname="power.svg"
   inkscape:version="0.92.2 5c3e80d, 2017-08-06">
  <defs
     id="defs2" />
  <sodipodi:namedview
     id="base"
     pagecolor="#ffffff"
     bordercolor="#666666"
     borderopacity="1.0"
     inkscape:pageopacity="0.0"
     inkscape:pageshadow="2"
     inkscape:zoom="5.6"
     inkscape:cx="25.29364"
     inkscape:cy="13.805518"
     inkscape:document-units="mm"
     inkscape:current-layer="layer1"
     showgrid="false"
     units="px"
     inkscape:window-width="1366"
     inkscape:window-height="705"
     inkscape:window-x="0"
     inkscape:window-y="0"
     inkscape:window-maximized="1" />
  <metadata
     id="metadata5">
    <rdf:RDF>
      <cc:Work
         rdf:about="">
        <dc:format>image/svg+xml</dc:format>
        <dc:type
           rdf:resource="http://purl.org/dc/dcmitype/StillImage" />
        <dc:title />
      </cc:Work>
    </rdf:RDF>
  </metadata>
  <g
     inkscape:label="Capa 1"
     inkscape:groupmode="layer"
     id="layer1"
     transform="translate(0,-284.29998)">
    <g
       aria-label="a"
       transform="matrix(0.77244226,0,0,0.75160281,-12.760151,284.20482)"
       style="font-style:normal;font-weight:normal;font-size:14.66666698px;line-height:1.25;font-family:sans-serif;text-align:center;letter-spacing:0px;word-spacing:0px;text-anchor:middle;fill:#000000;fill-opacity:1;stroke:none"
       id="flowRoot837">
      <path
         d="m 25.567383,12.532247 q -1.009766,0.780599 -1.267578,0.902344 -0.386719,0.179037 -0.823568,0.179037 -0.680339,0 -1.124349,-0.465495 -0.436849,-0.465495 -0.436849,-1.224609 0,-0.479818 0.214844,-0.83073 0.29362,-0.486979 1.016927,-0.916666 0.730469,-0.4296879 2.420573,-1.0455733 V 8.8727422 q 0,-0.9811198 -0.315104,-1.3463542 -0.307943,-0.3652344 -0.902344,-0.3652344 -0.451172,0 -0.716146,0.2434896 -0.272135,0.2434896 -0.272135,0.5585938 l 0.01432,0.4153646 q 0,0.3294271 -0.171875,0.5084635 -0.164714,0.1790365 -0.436849,0.1790365 -0.264974,0 -0.436849,-0.1861979 -0.164714,-0.186198 -0.164714,-0.5084636 0,-0.6158854 0.630208,-1.1315104 0.630209,-0.515625 1.768881,-0.515625 0.873698,0 1.432291,0.2936198 0.422526,0.2220052 0.623047,0.6946614 0.128906,0.3079427 0.128906,1.2604167 v 2.2272134 q 0,0.938151 0.03581,1.152995 0.03581,0.207682 0.114583,0.279297 0.08594,0.07161 0.193359,0.07161 0.114584,0 0.200521,-0.05013 0.150391,-0.0931 0.580078,-0.522786 v 0.401041 q -0.802083,1.074219 -1.532552,1.074219 -0.350911,0 -0.558593,-0.243489 -0.207683,-0.24349 -0.214844,-0.83073 z m 0,-0.465494 V 9.5674037 q -1.08138,0.4296875 -1.396485,0.6087243 -0.565755,0.315104 -0.809244,0.658854 -0.24349,0.34375 -0.24349,0.751953 0,0.515625 0.307943,0.859375 0.307942,0.336589 0.708984,0.336589 0.544271,0 1.432292,-0.716146 z"
         style="font-style:normal;font-variant:normal;font-weight:normal;font-stretch:normal;font-family:'Times New Roman';-inkscape-font-specification:'Times New Roman, '"
         id="path20" />
    </g>
    <flowRoot
       xml:space="preserve"
       id="flowRoot1028"
       style="font-style:normal;font-weight:normal;font-size:40px;line-height:1.25;font-family:sans-serif;text-align:center;letter-spacing:0px;word-spacing:0px;text-anchor:middle;fill:#000000;fill-opacity:1;stroke:none"
       transform="matrix(0.26458333,0,0,0.26458333,0,284.29998)"><flowRegion
         id="flowRegion1030"><rect
           id="rect1032"
           width="22.499992"
           height="26.428576"
           x="0.71428543"
           y="4.4285717" /></flowRegion><flowPara
         id="flowPara1034">xbbbbbbbbbbbbbbbbbb</flowPara></flowRoot>    <g
       aria-label="b"
       style="font-style:normal;font-variant:normal;font-weight:normal;font-stretch:normal;font-size:5.12911272px;line-height:1.25;font-family:'Times New Roman';-inkscape-font-specification:'Times New Roman, ';text-align:center;letter-spacing:0px;word-spacing:0px;text-anchor:middle;fill:#000000;fill-opacity:1;stroke:none;stroke-width:0.12822782"
       id="text1038">
      <path
         d="m 8.6185924,287.056 q 0.3330918,-0.46332 0.7187771,-0.46332 0.3531273,0 0.6160945,0.30304 0.262967,0.30053 0.262967,0.82396 0,0.61109 -0.4057206,0.98425 -0.3481185,0.32057 -0.7763793,0.32057 -0.200356,0 -0.4082253,-0.0726 -0.2053649,-0.0726 -0.4207476,-0.21789 v -2.37672 q 0,-0.39069 -0.020035,-0.48085 -0.017531,-0.0902 -0.057602,-0.12272 -0.040071,-0.0326 -0.100178,-0.0326 -0.070125,0 -0.1753114,0.0401 l -0.035062,-0.0876 0.6887236,-0.2805 h 0.1127002 z m 0,0.16029 v 1.37244 q 0.127727,0.12522 0.2629672,0.19033 0.1377448,0.0626 0.2804984,0.0626 0.2279049,0 0.423252,-0.25045 0.1978515,-0.25044 0.1978515,-0.72879 0,-0.44079 -0.1978515,-0.67621 -0.1953471,-0.23792 -0.4457921,-0.23792 -0.1327358,0 -0.2654716,0.0676 -0.100178,0.0501 -0.2554539,0.20036 z"
         style="font-style:normal;font-variant:normal;font-weight:normal;font-stretch:normal;font-family:'Times New Roman';-inkscape-font-specification:'Times New Roman, ';stroke-width:0.12822782"
         id="path17" />
    </g>
  </g>
</svg>
